<?xml version="1.0" encoding="UTF-8"?>
<svg id="Calque_1" data-name="Calque 1" xmlns="http://www.w3.org/2000/svg" viewBox="0 0 340.16 186.5">
  <defs>
    <style>
      .cls-1 {
        fill: #e32021;
      }

      .cls-1, .cls-2 {
        stroke-width: 0px;
      }

      .cls-2 {
        fill: #29234a;
      }
    </style>
  </defs>
  <g>
    <path class="cls-1" d="M340.16,66.91C302.7,26.47,240.5,0,170.08,0S37.46,26.47,0,66.91C46.4,29.9,105.59,7.7,170.08,7.7s123.68,22.2,170.08,59.22Z"/>
    <g>
      <path class="cls-2" d="M36.69,101.96c0,8.26-5.94,16.24-16.24,16.24h-10.44v16.24H.73v-48.71h17.4c12.68,0,18.56,6.81,18.56,16.24ZM27.41,101.96c0-4.57-3.62-6.96-8.12-6.96h-9.28v13.92h9.28c4.49,0,8.12-2.9,8.12-6.96Z"/>
      <path class="cls-2" d="M86.04,134.43l-10.95-16.24h-5.58v16.24h-9.28v-48.71h17.4c12.68,0,18.56,6.81,18.56,16.24,0,6.81-3.99,13.34-11.16,15.51l12.32,16.96h-11.31ZM69.52,108.92h9.28c4.49,0,8.12-2.9,8.12-6.96,0-4.57-3.62-6.96-8.12-6.96h-9.28v13.92Z"/>
      <path class="cls-2" d="M130.76,95v10.44h17.4v9.28h-17.4v10.44h20.88v9.28h-30.15v-48.71h30.15v9.28h-20.88Z"/>
      <path class="cls-2" d="M172.87,85.72h10.44l12.76,32.47,12.76-32.47h10.44l-19.72,48.71h-6.96l-19.72-48.71Z"/>
      <path class="cls-2" d="M265.86,125.16h-20.59l-3.62,9.28h-10.44l20.15-48.71h8.41l20.15,48.71h-10.44l-3.62-9.28ZM262.31,115.88l-6.74-17.4-6.74,17.4h13.48Z"/>
      <path class="cls-2" d="M339.42,119.94c0,8.7-6.67,15.66-19.57,15.66s-18.99-7.25-19.86-8.12l4.64-8.12c4.28,4.86,10.73,6.96,15.37,6.96,6.45,0,10.15-2.39,10.15-5.8s-3.48-5.15-9.86-6.09c-13.84-2.1-18.56-7.25-18.56-14.64,0-8.12,6.6-15.22,18.7-15.22,2.17,0,9.57.14,16.67,5.94l-3.91,7.98c-1.09-.94-5.87-4.64-12.9-4.64-4.93,0-9.28,1.38-9.28,5.29,0,3.33,2.83,4.57,9.86,5.73,10.66,1.74,18.56,4.64,18.56,15.08Z"/>
    </g>
  </g>
  <g>
    <path class="cls-1" d="M128.19,174.07c0,6.87-4.98,12.43-11.85,12.43s-12.43-5.56-12.43-12.43,5.56-12.43,12.43-12.43c4.91,0,8.67,2.75,10.73,6.8l-3.5,1.01c-1.38-2.6-3.98-4.34-7.23-4.34-4.95,0-8.96,4.01-8.96,8.96s4.01,8.96,8.96,8.96c4.41,0,7.37-2.85,8.16-6.65h-9.03v-3.47l12.65.04c.04.32.07.72.07,1.12Z"/>
    <path class="cls-1" d="M145.24,186.21l-6.04-8.38h-3.79v8.38h-3.47v-24.28h7.52c6.32,0,9.25,3.18,9.25,7.77,0,3.76-2.06,6.84-5.67,7.8l6.25,8.71h-4.05ZM135.41,174.36h5.17c2.53,0,4.66-1.3,4.66-4.45s-2.06-4.52-4.59-4.52h-5.24v8.96Z"/>
    <path class="cls-1" d="M175.87,174.07c0,6.87-5.56,12.43-12.43,12.43s-12.43-5.56-12.43-12.43,5.56-12.43,12.43-12.43,12.43,5.56,12.43,12.43ZM172.4,174.07c0-4.98-3.98-8.96-8.96-8.96s-8.96,3.98-8.96,8.96,3.98,8.96,8.96,8.96,8.96-3.98,8.96-8.96Z"/>
    <path class="cls-1" d="M197.53,161.93v13.59c0,6.4-2.89,10.98-9.25,10.98s-9.25-4.59-9.25-10.98v-13.59h3.47v14.74c0,3.76,2.13,6.36,5.78,6.36s5.78-2.6,5.78-6.36v-14.74h3.47Z"/>
    <path class="cls-1" d="M218.91,169.69c0,4.55-3.04,8.13-8.17,8.13h-5.13v8.38h-3.47v-24.28h7.52c6.32,0,9.25,3.18,9.25,7.77ZM215.44,169.91c0-3.18-2.35-4.52-4.88-4.52h-4.95v8.96h5.17c2.53,0,4.66-1.3,4.66-4.45Z"/>
    <path class="cls-1" d="M225.84,165.4v6.94h8.67v3.47h-8.67v6.94h10.41v3.47h-13.88v-24.28h13.88v3.47h-10.41Z"/>
  </g>
</svg>