<svg id="Layer_2" data-name="Layer 2" xmlns="http://www.w3.org/2000/svg" xmlns:xlink="http://www.w3.org/1999/xlink" viewBox="0 0 1039.8 666.35"><defs><style>.cls-1{fill:url(#linear-gradient);}.cls-2{fill:url(#linear-gradient-2);}</style><linearGradient id="linear-gradient" x1="263.22" y1="346.94" x2="806.45" y2="346.94" gradientUnits="userSpaceOnUse"><stop offset="0" stop-color="#fff"/><stop offset="1" stop-color="#691aff"/></linearGradient><linearGradient id="linear-gradient-2" x1="20.1" y1="540" x2="1059.9" y2="540" xlink:href="#linear-gradient"/></defs><path class="cls-1" d="M960.38,397.93S693,230.08,614.27,487.06l-81.7-158.94s240.64-258.47,519.9-20.8Z" transform="translate(-20.1 -206.83)"/><path class="cls-2" d="M182,849.5H20.1L303.82,206.83H443.45L605,605.05c23.77,58.6,68.48,107.23,126.62,132.12,62,26.55,144.09,29.89,224.3-62.95l104,96.55s-50.51,83.19-197.56,98c-132.45,13.38-230,.25-321.82-100.16a240.67,240.67,0,0,1-44.08-69.94C452.29,592.94,369.18,399.42,369.18,399.42Z" transform="translate(-20.1 -206.83)"/></svg>